<?xml version="1.0" standalone="no"?>
<!DOCTYPE svg PUBLIC "-//W3C//DTD SVG 20010904//EN"
 "http://www.w3.org/TR/2001/REC-SVG-20010904/DTD/svg10.dtd">
<svg version="1.0" xmlns="http://www.w3.org/2000/svg"
 width="800.000000pt" height="720.000000pt" viewBox="0 0 800.000000 720.000000"
 preserveAspectRatio="xMidYMid meet">

<g transform="translate(0.000000,720.000000) scale(0.100000,-0.100000)"
fill="#000000" stroke="none">
<path d="M496 6520 l-496 -620 0 -215 c0 -158 4 -236 16 -293 59 -288 263
-485 582 -564 67 -17 117 -22 217 -22 164 1 270 25 414 95 90 44 117 63 192
138 70 70 94 103 127 171 42 86 71 186 73 250 1 25 5 13 15 -38 29 -164 88
-282 189 -386 147 -151 344 -229 580 -229 411 -1 720 249 773 623 5 36 10 51
11 34 4 -113 85 -300 172 -397 167 -188 465 -291 741 -258 377 46 629 260 696
590 l19 94 6 -61 c14 -136 82 -283 179 -388 158 -172 443 -268 694 -234 364
48 607 270 668 610 10 52 14 64 15 40 2 -64 31 -164 73 -250 33 -68 57 -101
127 -171 75 -75 102 -94 192 -138 144 -70 250 -94 414 -95 194 0 348 43 492
136 121 79 219 195 268 316 44 108 55 195 55 425 l0 214 -496 621 -497 622
-3007 0 -3008 0 -496 -620z"/>
<path d="M1598 4940 c-1 -5 -32 -42 -68 -81 -155 -173 -396 -274 -680 -286
-76 -3 -154 -1 -177 5 l-43 10 0 -2264 0 -2264 3360 0 3360 0 0 2264 0 2264
-37 -9 c-58 -13 -207 -11 -313 6 -105 16 -223 51 -303 91 -67 34 -185 113
-200 134 -7 9 -37 44 -68 78 l-56 62 -48 -61 c-82 -104 -236 -207 -387 -258
-140 -48 -192 -56 -358 -55 -134 1 -169 5 -255 28 -190 50 -327 133 -444 269
l-64 75 -101 -102 c-82 -82 -119 -111 -196 -153 -107 -58 -238 -104 -350 -124
-101 -17 -307 -15 -400 5 -251 54 -402 143 -554 326 l-28 34 -31 -39 c-257
-331 -795 -438 -1202 -240 -113 55 -186 113 -273 215 -67 80 -77 89 -84 70z
m1177 -695 c183 -48 296 -149 432 -385 l49 -85 737 -3 737 -2 6 27 c30 140 97
276 163 335 100 89 223 124 468 135 235 9 378 -22 594 -133 304 -156 528 -387
612 -634 14 -41 142 -527 284 -1080 l258 -1005 0 -155 c-1 -144 -2 -161 -28
-235 -99 -282 -332 -435 -662 -435 -268 0 -510 113 -745 349 -113 113 -237
286 -311 432 l-39 79 -1330 0 -1329 0 -51 -98 c-246 -480 -632 -762 -1044
-762 -336 0 -579 164 -668 450 -20 64 -23 96 -23 225 l0 150 258 1005 c142
553 269 1039 283 1080 31 91 85 185 162 282 172 216 500 414 782 474 84 18
322 11 405 -11z"/>
<path d="M3398 2973 l-586 -618 244 -3 244 -2 0 -315 0 -315 690 0 690 0 0
305 0 305 247 2 247 3 -553 585 c-304 322 -572 604 -596 628 l-42 44 -585
-619z"/>
</g>
</svg>
